PathFileType	4	(X/Y/Z)	C:/Users/opensim2020/Desktop/walking_exp_matlab/subject06_walking21_straight_01_cyclic.trc	
DataRate	CameraRate	NumFrames	NumMarkers	Units	OrigDataRate	OrigDataStartFrame	OrigNumFrames	
100.00	100.00	8	44	mm	100.00	798	102	
Frame#	Time	LFHD			RFHD			LBHD			RBHD			C7			T10			CLAV			STRN			RBAK			LSHO			LUPA			LELB			LFRM			LWRA			LWRB			LFIN			RSHO			RUPA			RELB			RFRM			RWRA			RWRB			RFIN			LASI			RASI			LPSI			RPSI			LTHI			LKNE			LTIB			LANK			LHEE			LTOE			RTHI			RKNE			RTIB			RANK			RHEE			RTOE			*39			*40			*41			*42			*43			
		X1	Y1	Z1	X2	Y2	Z2	X3	Y3	Z3	X4	Y4	Z4	X5	Y5	Z5	X6	Y6	Z6	X7	Y7	Z7	X8	Y8	Z8	X9	Y9	Z9	X10	Y10	Z10	X11	Y11	Z11	X12	Y12	Z12	X13	Y13	Z13	X14	Y14	Z14	X15	Y15	Z15	X16	Y16	Z16	X17	Y17	Z17	X18	Y18	Z18	X19	Y19	Z19	X20	Y20	Z20	X21	Y21	Z21	X22	Y22	Z22	X23	Y23	Z23	X24	Y24	Z24	X25	Y25	Z25	X26	Y26	Z26	X27	Y27	Z27	X28	Y28	Z28	X29	Y29	Z29	X30	Y30	Z30	X31	Y31	Z31	X32	Y32	Z32	X33	Y33	Z33	X34	Y34	Z34	X35	Y35	Z35	X36	Y36	Z36	X37	Y37	Z37	X38	Y38	Z38	X39	Y39	Z39	X40	Y40	Z40	X41	Y41	Z41	X42	Y42	Z42	X43	Y43	Z43	X44	Y44	Z44	

39	0.380	-1041.69275	-517.16180	1630.99768	-910.93982	-522.79822	1614.93384	-1049.05164	-652.39594	1583.33765	-920.03326	-656.25574	1572.59644	-989.34192	-663.47913	1423.19922	-983.76080	-716.06873	1096.55994	-995.01740	-557.65753	1339.36304	-1000.34998	-527.77747	1164.24670	-900.58594	-740.60437	1257.72522	-1152.83887	-625.26160	1372.16907	-1222.93274	-683.84021	1179.21069	-1232.62122	-722.94482	1073.83789	-1264.12976	-748.84808	928.04529	-1241.53308	-716.25482	797.35413	-1263.79761	-783.88464	813.71198	-1276.84546	-770.99091	724.56641	-831.54822	-591.21991	1377.72900	-732.08679	-623.82257	1185.45923	-714.04657	-606.88300	1066.56433	-704.97137	-551.39972	961.60059	-755.98138	-449.21484	860.24280	-708.97778	-491.80695	838.91010	-717.90033	-428.42258	785.13239	-1093.86145	-541.63428	938.80927	-876.06500	-546.17499	936.44965	-1075.69153	-697.57263	959.42499	-907.44385	-696.08344	966.31891	-1167.12024	-523.39880	631.59399	-1136.73108	-448.28970	488.96259	-1134.34326	-405.27814	237.78006	-1097.33801	-348.56317	73.29250	-1048.95789	-382.21054	49.84359	-1091.19446	-201.50127	78.49812	-838.50000	-653.01587	608.93335	-863.64142	-682.62994	485.53342	-875.24597	-814.40930	246.95442	-929.56677	-885.59106	76.29774	-974.80322	-931.29053	59.75682	-923.77869	-741.02362	29.99541	-985.01050	-617.71582	1671.42957												 
40	0.390	-1042.77869	-504.89224	1628.38025	-912.08862	-510.30045	1612.47559	-1049.94641	-640.28491	1580.98364	-920.92163	-643.83344	1570.27161	-990.13361	-651.34650	1420.42065	-984.31287	-703.01550	1093.64600	-995.77911	-545.29224	1336.88928	-1000.46204	-514.66632	1161.96045	-901.06433	-728.06384	1254.92090	-1153.65283	-613.03729	1369.29443	-1223.35852	-673.26868	1176.86450	-1233.02869	-714.09998	1072.24646	-1264.83337	-742.60773	927.02600	-1243.47583	-712.19482	795.74481	-1264.36780	-779.63599	813.32135	-1277.38538	-769.04486	723.80493	-832.32263	-578.81787	1375.39075	-732.55206	-610.49658	1183.13086	-714.27570	-593.28699	1064.35059	-705.22870	-537.42285	959.61841	-756.31799	-434.85553	858.75922	-709.20392	-477.25900	837.27887	-718.10181	-413.70581	783.91217	-1093.50903	-526.68433	936.75214	-875.60217	-533.59875	933.83801	-1077.15308	-683.01801	956.71344	-908.79285	-683.33667	963.38239	-1168.81262	-508.14975	629.08643	-1136.90186	-433.72617	486.23254	-1134.44897	-384.02585	236.69153	-1097.13953	-321.88010	74.20807	-1049.03259	-354.99423	49.11511	-1089.92676	-174.50153	85.58989	-838.80035	-642.70337	607.16327	-863.71027	-672.97119	483.75690	-875.33679	-809.41602	247.52065	-929.19287	-884.50476	78.45806	-974.19739	-930.88763	63.11017	-923.85431	-740.91754	29.92766	-985.98877	-605.33746	1669.03979												 
41	0.400	-1044.16919	-492.69876	1626.02014	-913.33600	-497.82306	1610.19592	-1050.97485	-628.07129	1578.72009	-921.93219	-631.42621	1568.15601	-991.02051	-639.07629	1417.91394	-984.99164	-689.77155	1090.90186	-996.47968	-532.67194	1334.67700	-1000.66583	-501.44965	1159.84839	-901.67810	-715.36987	1252.34668	-1154.65857	-600.57941	1366.64795	-1224.05371	-662.30524	1174.84106	-1233.62048	-704.63037	1070.72681	-1265.46082	-735.48767	926.11237	-1245.12878	-706.85156	794.33313	-1264.86682	-774.24689	812.97345	-1277.93555	-765.96893	723.34503	-833.12103	-566.34009	1373.33984	-733.05774	-597.30212	1181.03735	-714.63690	-579.79083	1062.30908	-705.51721	-523.72479	957.76892	-756.58588	-420.92111	857.16040	-709.25385	-463.13248	835.59131	-718.33557	-399.43942	782.40515	-1093.40637	-511.66821	934.72198	-875.32672	-520.68146	931.46472	-1078.76013	-668.33356	954.25525	-910.41010	-670.32855	960.59241	-1170.09338	-492.23657	626.90894	-1137.05701	-419.05475	483.92963	-1134.33630	-364.02423	235.81670	-1096.51599	-298.38474	74.74890	-1048.43018	-330.92838	48.77178	-1089.16687	-151.35928	90.14317	-839.16650	-631.68201	605.42267	-863.74530	-662.68036	482.08572	-875.22693	-803.93774	248.43399	-928.59607	-883.14905	81.09545	-973.53369	-929.95221	66.85738	-923.94214	-740.87158	29.83733	-987.10864	-592.87268	1666.85974												 
42	0.410	-1045.34558	-480.14075	1623.98596	-914.56104	-485.24741	1608.25037	-1052.03137	-615.65771	1576.80225	-922.98041	-618.88361	1566.29529	-992.01965	-626.58539	1415.68372	-985.72784	-676.31036	1088.45239	-997.35541	-519.84155	1332.74280	-1000.99304	-488.18054	1157.92175	-902.46240	-702.55823	1250.02295	-1155.54260	-587.95850	1364.14087	-1224.71777	-650.90790	1173.06262	-1234.33936	-694.46362	1069.40955	-1266.20264	-727.58057	925.43896	-1246.86511	-700.62305	793.20929	-1265.55249	-768.06500	812.97015	-1278.58069	-761.43762	723.04877	-833.94507	-553.77667	1371.50793	-733.74207	-584.20868	1179.21826	-715.17023	-566.40601	1060.53772	-705.91858	-510.19910	955.97778	-756.91125	-407.43289	855.42883	-709.60614	-449.63956	833.90765	-718.43256	-385.77469	780.91663	-1093.44763	-496.51740	932.90686	-875.17804	-507.70786	929.33209	-1080.53674	-653.48718	952.01984	-912.16876	-657.06628	958.06464	-1171.15076	-476.56512	624.70447	-1137.19080	-404.30240	482.04532	-1134.17773	-345.39105	234.95761	-1095.53394	-278.16022	74.69756	-1047.32214	-310.10016	48.29827	-1088.85730	-131.33856	92.70831	-839.03351	-620.22034	603.92157	-863.59998	-651.75543	480.48990	-875.03851	-797.98206	249.74149	-927.70099	-881.54413	84.37890	-972.45697	-928.72980	71.37647	-924.04474	-740.80267	29.76613	-988.32739	-580.30627	1664.89075												 
43	0.420	-1046.70447	-467.62830	1622.34802	-915.76917	-472.58893	1606.66833	-1053.31702	-603.07324	1575.20276	-924.17853	-606.22137	1564.73535	-993.10077	-613.87585	1413.79089	-986.57416	-662.68805	1086.39087	-998.20422	-506.83719	1331.17871	-1001.20770	-474.16003	1156.74304	-903.37878	-689.52869	1248.04651	-1156.65247	-575.00519	1362.18530	-1225.45728	-639.13623	1171.63342	-1235.04089	-683.80048	1068.43152	-1267.00818	-718.72546	924.95319	-1248.27454	-693.78375	792.01880	-1266.17053	-760.43915	812.87720	-1279.21484	-755.64130	722.98737	-834.82684	-541.15295	1370.02527	-734.67236	-571.16254	1177.76807	-715.86359	-553.12238	1059.01355	-706.43042	-497.01260	954.41687	-757.09344	-394.35437	853.69885	-709.83038	-436.60208	832.30908	-718.38464	-372.85916	779.35437	-1093.67737	-481.13361	931.40985	-875.17810	-494.44275	927.56702	-1082.24731	-638.46466	950.07861	-913.91431	-643.48901	955.75378	-1172.02979	-461.11813	622.71454	-1137.40637	-389.31436	480.59396	-1133.95618	-328.79373	233.78549	-1094.46643	-261.36359	73.82558	-1045.87415	-292.90155	47.32460	-1088.49219	-114.71973	93.09207	-839.23212	-608.05499	602.63855	-863.70850	-640.24005	479.30545	-874.64484	-791.66736	251.56720	-926.62366	-879.55432	88.31171	-971.15692	-927.24664	76.72449	-924.13239	-740.76514	29.69536	-989.65625	-567.72748	1663.31641												 
44	0.430	-1048.09277	-455.01071	1621.01929	-917.10284	-459.98224	1605.49890	-1054.62988	-590.48029	1573.78699	-925.47687	-593.53961	1563.47290	-994.22626	-601.08453	1412.27905	-987.52600	-648.72205	1084.56714	-999.12274	-493.66605	1329.96533	-1001.74200	-460.68576	1155.42383	-904.41559	-676.38049	1246.44983	-1157.59680	-561.89020	1360.42896	-1226.35352	-626.88434	1170.60693	-1235.74658	-672.43817	1067.67310	-1267.83081	-708.94952	924.68964	-1249.64551	-685.22168	791.46069	-1266.99622	-751.94958	813.18103	-1279.91736	-748.35779	723.12177	-835.76257	-528.37823	1368.88074	-735.51007	-558.43604	1176.61377	-716.75397	-540.03027	1057.83105	-707.05664	-484.15506	953.08319	-757.29297	-381.86700	852.01471	-710.12262	-424.22290	830.86078	-718.38940	-360.47083	777.72229	-1094.11560	-465.58609	930.22437	-875.35571	-480.71606	926.12903	-1083.87036	-623.23889	948.40521	-915.66925	-629.54858	953.64355	-1172.56909	-445.51849	621.49170	-1137.54541	-374.22870	479.52667	-1133.55286	-314.15298	232.19682	-1093.49731	-247.76312	72.01901	-1044.81360	-279.15491	45.44139	-1087.96765	-101.24202	91.79729	-839.47778	-595.34058	601.60699	-863.55450	-628.04364	478.32904	-874.18262	-784.75531	253.88609	-925.34607	-877.25250	92.89065	-969.68634	-925.25580	82.92769	-924.16504	-740.77515	29.59244	-991.03345	-555.03656	1662.02600												 
45	0.440	-1049.49402	-442.16418	1620.04297	-918.31519	-447.30121	1604.67761	-1056.00989	-577.62683	1572.69153	-926.89117	-580.71075	1562.54138	-995.49994	-588.10687	1411.09705	-988.59546	-634.45355	1083.14563	-1000.08380	-480.38370	1329.09778	-1002.19556	-446.32300	1154.95532	-905.62714	-662.93384	1245.10852	-1158.87097	-548.57501	1359.39185	-1227.24487	-614.21039	1169.93152	-1236.47693	-660.56384	1067.38904	-1268.73022	-698.18542	924.64148	-1250.87463	-675.45117	791.15869	-1267.81702	-742.08905	813.51318	-1280.75073	-739.61810	723.40973	-836.83960	-515.55438	1368.08948	-736.57959	-545.64587	1175.85828	-717.76202	-527.14856	1057.02856	-707.71576	-471.81384	952.03052	-757.53284	-369.77615	850.42938	-710.19879	-412.26962	829.55786	-718.24677	-348.89856	776.23547	-1094.81421	-449.69760	929.49915	-875.77185	-466.58182	925.11371	-1084.98657	-608.19672	947.44312	-917.34827	-615.12152	951.85486	-1172.61560	-429.54675	621.02075	-1137.42712	-358.98416	478.86462	-1133.11804	-301.18842	230.28821	-1092.77417	-237.01329	69.46082	-1044.27808	-268.77151	42.99882	-1087.14783	-90.77911	88.84298	-839.75818	-582.12781	600.82782	-863.35504	-615.22491	477.53281	-873.57257	-777.25616	256.58920	-923.94958	-874.33783	98.16565	-968.13678	-922.58801	89.89366	-924.21143	-740.73352	29.57699	-992.53503	-542.34851	1661.08594												 
46	0.450	-1050.93518	-429.36365	1619.51270	-919.78766	-434.44846	1604.22278	-1057.56982	-564.69861	1571.96472	-928.32593	-567.87189	1561.93115	-996.79370	-574.94470	1410.09814	-989.77252	-619.73389	1081.95911	-1001.12524	-466.82034	1328.62317	-1002.79578	-432.02872	1154.66284	-907.05042	-649.37140	1244.08228	-1160.11609	-534.85400	1358.58130	-1228.36389	-601.19562	1169.65173	-1237.50586	-647.72272	1067.17957	-1269.62000	-686.35590	924.78992	-1252.04102	-664.38153	791.17358	-1268.72400	-730.98431	813.95789	-1281.63477	-729.33228	723.85284	-838.01215	-502.70743	1367.60144	-737.81036	-532.82587	1175.46667	-718.94403	-514.51599	1056.52979	-708.48425	-459.76978	951.23322	-757.66382	-358.22900	848.88794	-710.44733	-401.04199	828.35156	-718.09082	-337.94571	774.68823	-1095.56665	-433.50299	929.18420	-876.48206	-451.81149	924.49384	-1085.85925	-593.02930	946.88812	-918.94104	-600.16803	950.51410	-1172.39502	-413.42352	620.79132	-1137.05591	-343.57523	478.51950	-1132.92676	-289.98297	228.10310	-1092.22437	-228.94142	66.38377	-1043.74048	-261.91284	41.03097	-1086.29846	-82.99627	84.24973	-840.07031	-568.33136	600.26147	-862.97577	-601.54858	476.89172	-872.94800	-769.07312	259.78177	-922.58020	-870.80328	104.13483	-966.63989	-919.19684	97.89640	-924.28741	-740.68384	29.60036	-994.04041	-529.51038	1660.40479												 
